<svg xmlns="http://www.w3.org/2000/svg" width="250" height="140" viewBox="0 0 250 140">
  <g id="logo-desktop" transform="translate(-859 -24.593)">
    <path id="Line_44" data-name="Line 44" d="M250,.75H0V-.75H250Z" transform="translate(859 135.842)" />
    <text id="PHOTOGRAPHY" transform="translate(894.5 157.593)"  font-size="19" font-family="BrandonGrotesque-Light, Brandon Grotesque" font-weight="300" letter-spacing="0.2em"><tspan x="0" y="0">PHOTOGRAPHY</tspan></text>
    <path id="Line_43" data-name="Line 43" d="M250,.75H0V-.75H250Z" transform="translate(859 68.143)" />
    <path id="noun-foliage-herb-1983893" d="M182.342,105.124a3.8,3.8,0,0,1,1.395,2.881c-.023.9.982,1.825,1.535,2.733.129.211.31.388.437.6.143.238.251.5.374.748.131-.268.279-.531.393-.808,1.278-3.089,2.465-6.22,3.851-9.261,1.318-2.89,2.96-5.633,4.247-8.537h0a38.155,38.155,0,0,1,5.743-9.065c.87-1.038,1.843-1.994,2.665-3.065h0a2.912,2.912,0,0,0,.267-1.42,4.171,4.171,0,0,0-.117-.788c-.115-1.02.222-1.249,1.2-.869.115.045.452-.118.457-.2h0a18.114,18.114,0,0,1,3.786-8.958,15.649,15.649,0,0,0,1.267-2.431c.089-.2-.05-.533-.151-.778h0a24.016,24.016,0,0,1-1.183-2.836,2.854,2.854,0,0,1,2.1-2.9,26.836,26.836,0,0,1,3.824-.5c.662-.053.924.3.876,1.053a7.443,7.443,0,0,1-4.278,6l-.248.223c-1.34,2.379-2.757,4.72-3.97,7.162a18.719,18.719,0,0,0-1.01,3.609l.016.316.216-.167c2.106-1.852,4.235-3.678,6.3-5.574.542-.5.838-1.253,1.336-1.812,1.037-1.164,2.148-2.264,3.2-3.414a20.64,20.64,0,0,0,6.43-12.693c.155-2.568.168-5.146.2-7.721,0-.293-.267-.6-.428-.887a3.037,3.037,0,0,1-.1-3.221,26.838,26.838,0,0,1,2.706-3.894c.778-.868,1.307-.607,1.787.451.519,1.144,1.109,2.255,1.653,3.388a2.6,2.6,0,0,1-1.984,3.9c-1.786.451-2.756,1.18-2.7,3.276a44.615,44.615,0,0,1-.133,6.759,18.277,18.277,0,0,1-3.17,7.9c-.534.791-1.144,1.53-1.719,2.293l-.089.148.18-.076a40.581,40.581,0,0,0,6.186-4.781,24.87,24.87,0,0,0,3.251-6.034c.835-1.746-.075-3.414-.479-5.081-.582-2.4.22-3.191,2.656-2.535q.31.054.615.14c.577.221,1.606.425,1.629.706a4.124,4.124,0,0,1-.5,2.446c-.611.948-1.767,1.564-2.3,2.536h0a25.087,25.087,0,0,0-1.283,3.812,15.9,15.9,0,0,1-.86,1.736l-.116.3.338-.126a73.982,73.982,0,0,0,5.856-4.851,10.223,10.223,0,0,0,3.235-8.781c-.078-.616-.062-1.243-.12-1.861-.149-1.579-1.307-2.317-2.485-3.107-.564-.377-1.685-1.036-.783-1.773a17.3,17.3,0,0,1,3.975-2.071c.178-.08.685.325.878.614a1.168,1.168,0,0,1,.066.941,26.2,26.2,0,0,0-1.386,3.315c-.16.657.384,1.451.409,2.19a17.766,17.766,0,0,1-.038,6.782l-.009.321.283-.141h0a28.673,28.673,0,0,0,2.068-3.173,41.027,41.027,0,0,0,1.727-4.367,2.1,2.1,0,0,0-1.247-2.373.622.622,0,0,1-.354-.405,1.44,1.44,0,0,1,1.459-1.609,20.1,20.1,0,0,0,2.067-.3c.3-.043.791-.178.87-.057a1.892,1.892,0,0,1,.4,1.232,2.747,2.747,0,0,1-.821,1.6c-1.591,1.128-1.478,3.032-2.247,4.522a3.34,3.34,0,0,0-.19.728,4.836,4.836,0,0,0,.561-.536c1.362-1.77,2.783-3.5,4.05-5.338.99-1.436.336-2.975-.123-4.428a4.6,4.6,0,0,0-2.629-2.685c-.614-.307-.988-1.109-1.436-1.712l.418-.439a2.677,2.677,0,0,0,2.785-.7,1.058,1.058,0,0,1,1.753.831,12.944,12.944,0,0,1-.329,2.927,3.188,3.188,0,0,0-.054,1.059c.22.943.513,1.867.781,2.8l.142.41a1.7,1.7,0,0,0,.324-.276q.959-1.354,1.9-2.72h0a4.848,4.848,0,0,0-.444-6.065c-.2-.282-.9-.178-1.337-.331a2.724,2.724,0,0,1-.931-.553,7.223,7.223,0,0,1-.861-1.037,3.187,3.187,0,0,1-.633-1.038c-.029-.118.564-.576.83-.542,1.336.166,2.092-.9,3.14-1.319h0a1.017,1.017,0,0,1,.914.228,3.3,3.3,0,0,1,.181,3.749c-.224.54.241,1.4.478,2.086h0a3.753,3.753,0,0,0,.642.889,5.823,5.823,0,0,0,.471-.795c.579-1.452,1.176-2.9,1.668-4.383h0a1.551,1.551,0,0,0-.32-1.133,2.206,2.206,0,0,1-.386-2.585,9.087,9.087,0,0,0,.441-1.114c.092-.228.193-.624.315-.633a1.413,1.413,0,0,1,.753.289,18.68,18.68,0,0,1,1.806,1.2c.563.447,1.056.983,1.579,1.479-.533.551-.974,1.364-1.62,1.587h0a2.3,2.3,0,0,0-1.457,1.585c-.754,1.861-1.522,3.716-2.283,5.575l-.114.426.4-.165c1.353-.651,2.738-1.246,4.039-1.989a2.425,2.425,0,0,0,1.061-1.356,4.154,4.154,0,0,1,1.992-3.06.786.786,0,0,1,.714.293,32.647,32.647,0,0,1,1.532,4.164,2.359,2.359,0,0,1-.631,1.66c-.251.32-1.012.638-1.244.488-.534-.345-.85-1.01-1.326-1.472a1.083,1.083,0,0,0-.882-.3,20.435,20.435,0,0,0-3.634,1.541,8.4,8.4,0,0,0-4.049,3.644,15.808,15.808,0,0,1-1.916,2.725,2.489,2.489,0,0,0-.217.513l.521-.068a13.974,13.974,0,0,1,6.623-.359c1.07.224,1.732-.495,2.44-1.149a15.162,15.162,0,0,1,2.427-1.924c.543-.326.959.027.966.739.013,1.206.112,2.412.088,3.616h0a2,2,0,0,1-.475,1.106c-.236.292-.758.715-.935.63h0a4.643,4.643,0,0,1-1.813-1.3,3.124,3.124,0,0,0-2.835-1.163,15.2,15.2,0,0,0-6.7,1.1,15,15,0,0,0-5.9,5.35.565.565,0,0,0,.169.5c2.045.647,4.087,1.314,6.165,1.833.367.091.894-.468,1.35-.721a5.014,5.014,0,0,1,3.566-1.076c.591.129.656.491.378,1.037-.859,1.688-1.668,3.4-2.506,5.1-.056.114-.229.279-.3.259-.514-.143-1.191-.183-1.482-.534-.483-.579-.584-1.49-1.088-2.038h0a9.585,9.585,0,0,0-2.288-1.691,24.125,24.125,0,0,0-2.41-1.06,2.736,2.736,0,0,0-3.526.99,29.276,29.276,0,0,1-7.154,7.1,3.365,3.365,0,0,0-.481.516l.636-.121a18.182,18.182,0,0,1,8.1.2.7.7,0,0,0,.614-.249,4.94,4.94,0,0,1,2.349-2.645c.425-.16,1.278-.2,1.389.006h0a3.306,3.306,0,0,1,.454,1.991,32.905,32.905,0,0,1-1.057,3.318c-.2.693-.473,1.049-1.124.454-.555-.508-1.026-1.113-1.606-1.586A7.151,7.151,0,0,0,238.6,57.7a41.591,41.591,0,0,0-5.416.742,2.384,2.384,0,0,0-1,.485c-2.2,1.67-4.377,3.362-6.559,5.048l-.308.306.421.076c1.971.148,3.94.32,5.915.417a6.382,6.382,0,0,0,1.758-.265c1.785-.43,3.567-.876,5.34-1.353.592-.16,1.142-.5,1.738-.608.2-.038.586.319.726.581.6,1.135.084,2.251-.133,3.37h0a6.031,6.031,0,0,0-.08,1.012c-.02.995-.923,1.368-2.229.863-.635-.245-1.212-.653-1.855-.865-1.422-.469-2.851-.935-4.308-1.261a44.381,44.381,0,0,0-4.781-.8,7.552,7.552,0,0,0-5.689,1.1c-2.614,2-5.148,4.1-7.724,6.144-.921.731-1.866,1.433-2.8,2.152l-.274.275.343-.089a24.469,24.469,0,0,1,8.764-1.629,48.568,48.568,0,0,1,8.147.778,11.248,11.248,0,0,0,2.77-.756c1.144-.251,2.306-.44,3.469-.577h0a5.919,5.919,0,0,1,2.173.013,10.934,10.934,0,0,1,2.28,1.12c.069.037.057.337,0,.478-.611,1.406-1.156,2.85-1.889,4.191a2.288,2.288,0,0,1-3.574.251,13.65,13.65,0,0,0-3.174-3.111,9.991,9.991,0,0,0-5.13-1.149c-1.522.148-2.835-.42-4.282-.384a18.847,18.847,0,0,0-9.669,2.086l-.466.223-.49.252.387.2.115.376c-.351.353-.688.864-1.116.965-.766.181-1.667-.08-2.372.2a5.8,5.8,0,0,0-1.878,1.529c-.868.925-1.643,1.938-2.47,2.9-.593.694-1.21,1.367-1.809,2.057l-.156.334.354-.128h0a45.231,45.231,0,0,1,5.233-2.689c1.94-.712,4.042-.97,6.05-1.515.492-.133.872-.644,1.336-.929h0a16.321,16.321,0,0,1,2.862-1.622,3.672,3.672,0,0,1,2.505-.105c.79.36,1.838,1.269,1.862,1.972h0a6,6,0,0,1-1.057,4.835,2.175,2.175,0,0,1-1.979.163,19.774,19.774,0,0,1-2.738-1.974,5.431,5.431,0,0,0-4.368-.78c-1.695.33-3.337.919-5.012,1.362h0a17.441,17.441,0,0,0-6.136,3.576,21.331,21.331,0,0,0-5.475,8.424c-.668,1.4-1.638,2.65-2.35,4.033-.751,1.458-1.362,2.988-2.022,4.493q-1.171,2.67-2.316,5.351c-.481,1.123-.941,2.255-1.4,3.387l-.018.31.2-.077c2.13-1.046,4.243-2.128,6.392-3.132,2.658-1.243,5.353-2.405,8.01-3.649a1.806,1.806,0,0,0,.766-.9c.952-2.277,1.922-4.55,2.751-6.872a14.792,14.792,0,0,0,.488-3.006,10.408,10.408,0,0,1,.2-1.893c.445-1.333,1.232-1.6,2.417-1,.61.309,1.3.481,1.872.84.511.32,1.329.9,1.269,1.219h0a3.1,3.1,0,0,1-1.215,1.637,7.71,7.71,0,0,1-2.071.963,3.934,3.934,0,0,0-2.251,2.226c-.767,1.662-1.447,3.364-2.15,5.055h0a.279.279,0,1,0,.4.388A23.931,23.931,0,0,0,213.785,97.7a11.534,11.534,0,0,0,1.164-3.133c.359-1.286-.326-2-1.5-2.42h0a2.11,2.11,0,0,1-1.074-2.377,1.613,1.613,0,0,1,1.061-.594,13.7,13.7,0,0,1,2.659-.282c.478,0,1.286.23,1.362.513.187.693.34,1.723-.032,2.183h0a22.888,22.888,0,0,0-2.78,6.35c-.242.6-.594,1.149-.9,1.722l-.228.437a2.205,2.205,0,0,0,.576-.151c1.1-.644,2.146-1.374,3.276-1.95a18.973,18.973,0,0,0,6.155-5.286,8.654,8.654,0,0,0,1.7-4.265l-.066-.244c-1.368-.49-.544-1.886-1.087-2.727a2.133,2.133,0,0,1,.833-.721,17.813,17.813,0,0,1,3.473-1.07,1.779,1.779,0,0,1,1.424.969,2.991,2.991,0,0,1-.319,1.909,8.385,8.385,0,0,1-3.549,3.676c-.184.112-.23.428-.382.618-.729.908-1.476,1.8-2.206,2.712a2.064,2.064,0,0,0-.209.439,1.587,1.587,0,0,0,.451-.189c2.017-1.748,4.073-3.453,6.015-5.281a24.417,24.417,0,0,0,2.468-3.018,1.093,1.093,0,0,0,.246-.848c-.658-1.67.661-2.28,1.629-3,.913-.677,1.873-.269,2.817.143.91.4,1.747.871,1.859,1.926h0a1.759,1.759,0,0,1-.54,1.3,7.353,7.353,0,0,1-4.864,1.652,1.257,1.257,0,0,0-.8.432c-.681.8-1.265,1.682-1.968,2.458-1,1.106-2.079,2.144-3.122,3.215l-.231.3.366-.048c1.7-.687,3.4-1.4,5.112-2.068,1.926-.753,3.854-1.5,5.808-2.175.454-.157,1.422-.117,1.463.029a4.746,4.746,0,0,1,.232,2.366c-.323,1.235-1.044,2.411-2.527,2.391-1.011-.013-2.362.1-2.809-1.091s-1.134-.671-1.8-.542h0a19.664,19.664,0,0,0-6.651,2.805c-1.99,1.237-4.107,2.267-6.168,3.392q-2.169,1.182-4.334,2.374l-.249.209.317.036c1.2-.16,2.4-.344,3.6-.479.247-.027.515.178.771.173,1.821-.034,3.642-.069,5.462-.157,1.695-.082,2.18.524,1.586,2.069l-.028.2.211-.032.9-1.055.156-.267.068.35c-.139.308-.246.714-.5.874-1.7,1.081-3.421,2.125-5.172,3.115-.132.075-.73-.308-.8-.565h0a17.069,17.069,0,0,1-.22-1.923,2.755,2.755,0,0,0-3.164-2.11c-2,.318-4.009.647-5.986,1.09h0a11.339,11.339,0,0,0-2.267,1.015c-1.171.558-2.337,1.128-3.505,1.69l-.218.064-.8.687.862.35a20.759,20.759,0,0,0,2.744,1.1,6.9,6.9,0,0,0,2.458.116c1.321-.158,2.623-.472,3.934-.723a3.1,3.1,0,0,1,2.679,1.369,2.935,2.935,0,0,1-.621,3.119c-1.118.917-2.213,1.861-3.349,2.756-.056.045-.469-.238-.6-.442-.851-1.28-1.59-2.645-2.522-3.861a9.881,9.881,0,0,0-6.5-2.953c-.734-.153-1.685.563-2.493.968-2.167,1.087-4.285,2.272-6.469,3.32-1.913.919-3.9,1.69-5.831,2.565h0a3.331,3.331,0,0,0-.767.7,7.741,7.741,0,0,0,.854.089c1.84-.008,3.683.034,5.518-.075h0a14.172,14.172,0,0,0,2.492-.622c1.442-.36,2.422-.036,2.849.929a3.267,3.267,0,0,1-.882,3.789,2.342,2.342,0,0,1-3.594-1.059A3.063,3.063,0,0,0,193.455,115a12.9,12.9,0,0,0-7.487,1.868,38.4,38.4,0,0,0-3.912,3.492c-1.127,1.047-2.281,2.075-3.319,3.205-1.545,1.682-2.948,3.5-4.505,5.167-1.1,1.176-2.335,2.22-3.534,3.3-.17.152-.477.149-.721.217h0a3.44,3.44,0,0,1,.347-.634c1.293-1.52,2.575-3.051,3.911-4.534.926-1.028,1.963-1.955,2.891-2.981.672-.742,1.212-1.6,1.87-2.359,1.664-1.914,3.312-3.845,5.058-5.684h0a4.6,4.6,0,0,0,.4-5.389c-.963-1.7-1.986-.8-3.056-.486-1.027.306-1.98-.212-1.812-1.319h0a17.338,17.338,0,0,1,1.371-3.98Z" transform="translate(689.17 2.799)" fill="#e1c48f"/>
    <text id="NICO" transform="translate(913.5 116.874)"  font-size="50" font-family="CormorantGaramond-Bold, Cormorant Garamond" font-weight="700" letter-spacing="0.1em"><tspan x="0" y="0">NICO</tspan></text>
  </g>
</svg>
