<svg xmlns="http://www.w3.org/2000/svg" width="140" height="87.798" viewBox="0 0 140 87.798">
  <g id="logo" transform="translate(-165 -21.702)">
    <text id="PHOTOGRAPHY" transform="translate(178.5 104.5)" fill="#313b41" font-size="12" font-family="BrandonGrotesque-Light, Brandon Grotesque" font-weight="300" letter-spacing="0.2em"><tspan x="0" y="0">PHOTOGRAPHY</tspan></text>
    <path id="Line_43" data-name="Line 43" d="M140,.75H0V-.75H140Z" transform="translate(165 46.5)" fill="#313b41"/>
    <path id="Line_44" data-name="Line 44" d="M140,.75H0V-.75H140Z" transform="translate(165 88)" fill="#313b41"/>
    <path id="noun-foliage-herb-1983893" d="M177.4,71.815a2.283,2.283,0,0,1,.837,1.73c-.014.539.589,1.1.922,1.641.077.126.186.233.262.36.086.143.15.3.224.449.079-.161.167-.319.236-.485.767-1.854,1.48-3.734,2.312-5.559.791-1.735,1.777-3.381,2.549-5.124h0a22.9,22.9,0,0,1,3.447-5.442c.522-.623,1.106-1.2,1.6-1.84h0a1.748,1.748,0,0,0,.16-.852,2.5,2.5,0,0,0-.07-.473c-.069-.612.133-.75.72-.522.069.027.271-.071.275-.121h0a10.873,10.873,0,0,1,2.273-5.377,9.393,9.393,0,0,0,.76-1.459c.054-.119-.03-.32-.091-.467h0a14.42,14.42,0,0,1-.71-1.7,1.713,1.713,0,0,1,1.261-1.743,16.11,16.11,0,0,1,2.3-.3c.4-.032.555.177.526.632a4.468,4.468,0,0,1-2.568,3.6l-.149.134c-.8,1.428-1.655,2.833-2.383,4.3a11.238,11.238,0,0,0-.606,2.166l.009.19.13-.1c1.264-1.112,2.542-2.208,3.782-3.346.325-.3.5-.752.8-1.088.622-.7,1.29-1.359,1.922-2.049a12.389,12.389,0,0,0,3.86-7.619c.093-1.542.1-3.089.12-4.635,0-.176-.16-.358-.257-.532a1.823,1.823,0,0,1-.062-1.934,16.108,16.108,0,0,1,1.624-2.337c.467-.521.785-.365,1.073.271.311.687.666,1.354.993,2.034a1.564,1.564,0,0,1-1.191,2.341c-1.072.271-1.654.708-1.619,1.967a26.777,26.777,0,0,1-.08,4.057,10.971,10.971,0,0,1-1.9,4.743c-.32.475-.687.918-1.032,1.376l-.054.089.108-.046a24.36,24.36,0,0,0,3.713-2.87,14.929,14.929,0,0,0,1.952-3.622c.5-1.048-.045-2.049-.287-3.05-.35-1.443.132-1.915,1.594-1.522q.186.033.369.084c.346.133.964.255.978.424a2.475,2.475,0,0,1-.3,1.468c-.367.569-1.061.939-1.383,1.522h0a15.06,15.06,0,0,0-.77,2.288,9.544,9.544,0,0,1-.516,1.042l-.07.183.2-.075a44.412,44.412,0,0,0,3.515-2.912,6.137,6.137,0,0,0,1.942-5.271c-.047-.37-.037-.746-.072-1.117-.089-.948-.785-1.391-1.491-1.865-.338-.226-1.012-.622-.47-1.064A10.383,10.383,0,0,1,211,31.139c.107-.048.411.2.527.368a.7.7,0,0,1,.04.565,15.724,15.724,0,0,0-.832,1.99c-.1.394.23.871.245,1.315a10.664,10.664,0,0,1-.023,4.071l-.006.193.17-.084h0a17.211,17.211,0,0,0,1.241-1.9,24.629,24.629,0,0,0,1.037-2.621,1.26,1.26,0,0,0-.749-1.424.374.374,0,0,1-.212-.243.864.864,0,0,1,.876-.966,12.063,12.063,0,0,0,1.241-.182c.179-.026.475-.107.522-.034a1.136,1.136,0,0,1,.242.739,1.649,1.649,0,0,1-.493.961c-.955.677-.887,1.82-1.349,2.714a2.005,2.005,0,0,0-.114.437,2.9,2.9,0,0,0,.337-.322c.818-1.062,1.67-2.1,2.431-3.2.594-.862.2-1.786-.074-2.658a2.763,2.763,0,0,0-1.578-1.612c-.369-.185-.593-.665-.862-1.028l.251-.263a1.607,1.607,0,0,0,1.671-.421.635.635,0,0,1,1.052.5,7.769,7.769,0,0,1-.2,1.757,1.914,1.914,0,0,0-.032.636c.132.566.308,1.121.469,1.68l.086.246a1.022,1.022,0,0,0,.195-.166q.575-.813,1.139-1.633h0a2.91,2.91,0,0,0-.267-3.64c-.122-.169-.539-.107-.8-.2a1.635,1.635,0,0,1-.559-.332,4.335,4.335,0,0,1-.517-.622,1.913,1.913,0,0,1-.38-.623c-.017-.071.338-.346.5-.325.8.1,1.256-.54,1.885-.792h0a.61.61,0,0,1,.549.137,1.98,1.98,0,0,1,.108,2.25c-.135.324.145.84.287,1.252h0a2.252,2.252,0,0,0,.385.533,3.5,3.5,0,0,0,.283-.477c.347-.872.706-1.741,1-2.631h0a.931.931,0,0,0-.192-.68,1.324,1.324,0,0,1-.231-1.552,5.452,5.452,0,0,0,.265-.669c.055-.137.116-.375.189-.38a.848.848,0,0,1,.452.173,11.212,11.212,0,0,1,1.084.721c.338.268.634.59.948.888-.32.33-.585.819-.972.953h0a1.381,1.381,0,0,0-.875.951c-.452,1.117-.914,2.231-1.371,3.346l-.068.256.239-.1c.812-.391,1.643-.748,2.425-1.194a1.456,1.456,0,0,0,.637-.814,2.494,2.494,0,0,1,1.2-1.837.472.472,0,0,1,.428.176,19.6,19.6,0,0,1,.92,2.5,1.416,1.416,0,0,1-.379,1c-.15.192-.607.383-.747.293-.32-.207-.51-.606-.8-.884a.65.65,0,0,0-.53-.182,12.267,12.267,0,0,0-2.181.925,5.044,5.044,0,0,0-2.43,2.188,9.489,9.489,0,0,1-1.15,1.636,1.493,1.493,0,0,0-.13.308l.313-.041a8.388,8.388,0,0,1,3.975-.215c.643.134,1.04-.3,1.464-.689A9.1,9.1,0,0,1,224.66,31c.326-.2.575.016.58.443.008.724.067,1.448.053,2.171h0a1.2,1.2,0,0,1-.285.664c-.141.175-.455.429-.561.378h0a2.787,2.787,0,0,1-1.088-.781,1.875,1.875,0,0,0-1.7-.7,9.122,9.122,0,0,0-4.02.663,9,9,0,0,0-3.539,3.211.339.339,0,0,0,.1.3c1.227.388,2.453.789,3.7,1.1.22.055.537-.281.81-.433a3.01,3.01,0,0,1,2.141-.646c.355.078.394.295.227.622-.516,1.013-1,2.042-1.5,3.062-.034.068-.138.168-.182.155-.309-.086-.715-.11-.89-.32-.29-.348-.351-.894-.653-1.224h0a5.753,5.753,0,0,0-1.373-1.015,14.482,14.482,0,0,0-1.447-.636,1.642,1.642,0,0,0-2.117.594,17.574,17.574,0,0,1-4.294,4.261,2.018,2.018,0,0,0-.289.31l.382-.073a10.914,10.914,0,0,1,4.864.119.421.421,0,0,0,.368-.149,2.965,2.965,0,0,1,1.41-1.588c.255-.1.767-.119.834,0h0a1.984,1.984,0,0,1,.273,1.195,19.755,19.755,0,0,1-.635,1.992c-.122.416-.284.63-.675.272-.333-.3-.616-.668-.964-.952a4.293,4.293,0,0,0-3.019-.65,24.965,24.965,0,0,0-3.251.446,1.431,1.431,0,0,0-.6.291c-1.318,1-2.627,2.018-3.937,3.03l-.185.183.253.046c1.183.089,2.365.192,3.55.251a3.83,3.83,0,0,0,1.055-.159c1.071-.258,2.141-.526,3.205-.812.356-.1.686-.3,1.043-.365.123-.023.352.191.436.349.363.681.05,1.351-.08,2.023h0a3.62,3.62,0,0,0-.048.607c-.012.6-.554.821-1.338.518-.381-.147-.728-.392-1.113-.519-.853-.281-1.711-.561-2.586-.757A26.643,26.643,0,0,0,204.7,48a4.533,4.533,0,0,0-3.415.662c-1.569,1.2-3.09,2.46-4.636,3.688-.553.439-1.12.86-1.679,1.292l-.164.165.206-.054a14.688,14.688,0,0,1,5.261-.978,29.154,29.154,0,0,1,4.89.467,6.752,6.752,0,0,0,1.662-.454c.687-.15,1.384-.264,2.082-.346h0a3.553,3.553,0,0,1,1.3.008,6.563,6.563,0,0,1,1.369.672c.041.022.034.2,0,.287-.367.844-.694,1.711-1.134,2.516a1.373,1.373,0,0,1-2.145.15A8.193,8.193,0,0,0,206.4,54.21a6,6,0,0,0-3.08-.689c-.914.089-1.7-.252-2.571-.23a11.313,11.313,0,0,0-5.8,1.252l-.28.134-.294.152.232.118.069.226c-.211.212-.413.519-.67.579-.46.108-1-.048-1.424.118a3.479,3.479,0,0,0-1.127.918c-.521.555-.986,1.163-1.482,1.742-.356.417-.726.82-1.086,1.235l-.093.2.213-.077h0a27.152,27.152,0,0,1,3.141-1.614c1.164-.427,2.426-.582,3.631-.909.3-.08.523-.386.8-.558h0a9.8,9.8,0,0,1,1.718-.974,2.2,2.2,0,0,1,1.5-.063c.474.216,1.1.762,1.118,1.184h0a3.6,3.6,0,0,1-.635,2.9,1.306,1.306,0,0,1-1.188.1,11.868,11.868,0,0,1-1.643-1.185,3.26,3.26,0,0,0-2.622-.468c-1.017.2-2,.552-3.009.818h0a10.469,10.469,0,0,0-3.683,2.147,12.8,12.8,0,0,0-3.286,5.057c-.4.839-.983,1.591-1.411,2.421-.451.875-.818,1.794-1.214,2.7q-.7,1.6-1.39,3.212c-.289.674-.565,1.354-.842,2.033l-.011.186.122-.046c1.278-.628,2.547-1.277,3.837-1.88,1.6-.746,3.213-1.444,4.808-2.19a1.084,1.084,0,0,0,.46-.542c.572-1.367,1.154-2.731,1.651-4.125a8.881,8.881,0,0,0,.293-1.8,6.248,6.248,0,0,1,.119-1.136c.267-.8.74-.96,1.451-.6.366.186.78.289,1.124.5.306.192.8.538.762.732h0a1.861,1.861,0,0,1-.729.982,4.629,4.629,0,0,1-1.243.578,2.362,2.362,0,0,0-1.351,1.336c-.46,1-.868,2.019-1.291,3.034h0a.168.168,0,1,0,.24.233,14.365,14.365,0,0,0,6.041-4.591,6.924,6.924,0,0,0,.7-1.881c.215-.772-.2-1.2-.9-1.453h0a1.266,1.266,0,0,1-.645-1.427.968.968,0,0,1,.637-.357,8.226,8.226,0,0,1,1.6-.169c.287,0,.772.138.818.308.112.416.2,1.035-.019,1.31h0a13.739,13.739,0,0,0-1.669,3.811c-.145.358-.357.689-.538,1.033l-.137.262a1.324,1.324,0,0,0,.346-.091c.658-.386,1.288-.825,1.967-1.17a11.389,11.389,0,0,0,3.695-3.173,5.2,5.2,0,0,0,1.018-2.56l-.04-.146c-.821-.294-.327-1.132-.653-1.637a1.28,1.28,0,0,1,.5-.433,10.692,10.692,0,0,1,2.085-.643,1.068,1.068,0,0,1,.855.582,1.8,1.8,0,0,1-.191,1.146,5.033,5.033,0,0,1-2.131,2.207c-.11.067-.138.257-.229.371-.438.545-.886,1.083-1.324,1.628a1.238,1.238,0,0,0-.125.263.952.952,0,0,0,.271-.114c1.211-1.049,2.445-2.073,3.611-3.17a14.656,14.656,0,0,0,1.481-1.812.656.656,0,0,0,.148-.509c-.395-1,.4-1.368.978-1.8.548-.407,1.125-.162,1.691.086.546.239,1.048.523,1.116,1.156h0a1.056,1.056,0,0,1-.324.78,4.414,4.414,0,0,1-2.92.991.754.754,0,0,0-.482.259c-.409.479-.759,1.01-1.182,1.475-.6.664-1.248,1.287-1.874,1.93l-.139.179.22-.029c1.023-.412,2.041-.84,3.068-1.241,1.156-.452,2.313-.9,3.486-1.306.272-.094.853-.07.878.017a2.849,2.849,0,0,1,.139,1.42c-.194.741-.627,1.447-1.517,1.435-.607-.008-1.418.059-1.686-.655s-.681-.4-1.079-.325h0a11.8,11.8,0,0,0-3.993,1.684c-1.194.743-2.466,1.361-3.7,2.036q-1.3.71-2.6,1.425l-.149.125.19.022c.721-.1,1.44-.206,2.162-.287.148-.016.309.107.463.1,1.093-.021,2.186-.041,3.278-.094,1.017-.049,1.309.315.952,1.242l-.017.122.127-.019.543-.634.094-.16.041.21c-.083.185-.148.428-.3.525-1.019.649-2.053,1.276-3.1,1.87-.079.045-.438-.185-.481-.339h0a10.245,10.245,0,0,1-.132-1.154,1.654,1.654,0,0,0-1.9-1.267c-1.2.191-2.406.389-3.593.654h0a6.806,6.806,0,0,0-1.361.609c-.7.335-1.4.677-2.1,1.014l-.131.039-.48.412.517.21a12.461,12.461,0,0,0,1.647.659,4.143,4.143,0,0,0,1.475.07c.793-.1,1.575-.284,2.361-.434a1.862,1.862,0,0,1,1.608.822,1.762,1.762,0,0,1-.373,1.872c-.671.55-1.329,1.117-2.01,1.654-.034.027-.281-.143-.363-.265-.511-.768-.955-1.588-1.514-2.317a5.931,5.931,0,0,0-3.9-1.773c-.441-.092-1.012.338-1.5.581-1.3.653-2.572,1.364-3.883,1.993-1.148.551-2.339,1.014-3.5,1.539h0a2,2,0,0,0-.46.422,4.646,4.646,0,0,0,.513.054c1.1-.005,2.211.021,3.312-.045h0a8.508,8.508,0,0,0,1.5-.374c.866-.216,1.454-.022,1.71.558a1.961,1.961,0,0,1-.53,2.274,1.406,1.406,0,0,1-2.157-.636,1.839,1.839,0,0,0-1.956-1.167,7.745,7.745,0,0,0-4.494,1.121,23.047,23.047,0,0,0-2.348,2.1c-.677.629-1.369,1.245-1.992,1.924-.927,1.01-1.77,2.1-2.7,3.1-.658.706-1.4,1.333-2.122,1.978-.1.091-.286.089-.433.13h0a2.065,2.065,0,0,1,.209-.381c.776-.913,1.546-1.831,2.347-2.722.556-.617,1.178-1.174,1.735-1.789.4-.446.728-.962,1.122-1.416,1-1.149,1.988-2.308,3.036-3.412h0a2.764,2.764,0,0,0,.243-3.235c-.578-1.019-1.192-.483-1.835-.292-.616.183-1.188-.128-1.088-.792h0a10.407,10.407,0,0,1,.823-2.389Z" transform="translate(-4.885 -0.093)" fill="#e1c48f"/>
    <text id="NICO" transform="translate(193 77)" fill="#313b41" font-size="30" font-family="CormorantGaramond-Bold, Cormorant Garamond" font-weight="700" letter-spacing="0.1em"><tspan x="0" y="0">NICO</tspan></text>
  </g>
</svg>
