<svg xmlns="http://www.w3.org/2000/svg" width="28.42" height="23.733" viewBox="0 0 28.42 23.733">
  <path id="Icon_feather-twitter" data-name="Icon feather-twitter" d="M19.385,2.985a6.676,6.676,0,0,1,4.293,1.562,11.073,11.073,0,0,0,2.378-1.276,1.5,1.5,0,0,1,2.322,1.581,10.411,10.411,0,0,1-2.284,4.4q.015.22.016.441A18.994,18.994,0,0,1,24.8,16.819a15.7,15.7,0,0,1-3.574,5.387A16.054,16.054,0,0,1,9.88,26.718,18.841,18.841,0,0,1,.772,24.3a1.5,1.5,0,0,1,.788-2.81c.158.006.317.009.475.009a11.913,11.913,0,0,0,4.415-.844A11.3,11.3,0,0,1,1.3,11.5,15.68,15.68,0,0,1,2.44,5.043a1.5,1.5,0,0,1,2.6-.253,10.829,10.829,0,0,0,7.679,4.537,6.678,6.678,0,0,1,6.667-6.342Zm3.907,4.78a1.5,1.5,0,0,1-1.132-.516,3.676,3.676,0,0,0-6.45,2.462q0,.01,0,.02v1.155a1.5,1.5,0,0,1-1.461,1.5c-.119,0-.24,0-.359,0A13.831,13.831,0,0,1,4.491,8.7,11.9,11.9,0,0,0,4.3,11.456C4.5,15.01,6.48,17.65,10.2,19.3a1.5,1.5,0,0,1,.233,2.612A14.974,14.974,0,0,1,7.39,23.5a14.814,14.814,0,0,0,2.49.213c6.372,0,13.229-4.388,13.229-14.022a3.7,3.7,0,0,0-.066-.677,1.5,1.5,0,0,1,.333-1.257Z" transform="translate(0 -2.985)" />
</svg>
